ffmpeg version 2.8.11-0ubuntu0.16.04.1 Copyright (c) 2000-2017 the FFmpeg developers
  built with gcc 5.4.0 (Ubuntu 5.4.0-6ubuntu1~16.04.4) 20160609
  configuration: --prefix=/usr --extra-version=0ubuntu0.16.04.1 --build-suffix=-ffmpeg --toolchain=hardened --libdir=/usr/lib/x86_64-linux-gnu --incdir=/usr/include/x86_64-linux-gnu --cc=cc --cxx=g++ --enable-gpl --enable-shared --disable-stripping --disable-decoder=libopenjpeg --disable-decoder=libschroedinger --enable-avresample --enable-avisynth --enable-gnutls --enable-ladspa --enable-libass --enable-libbluray --enable-libbs2b --enable-libcaca --enable-libcdio --enable-libflite --enable-libfontconfig --enable-libfreetype --enable-libfribidi --enable-libgme --enable-libgsm --enable-libmodplug --enable-libmp3lame --enable-libopenjpeg --enable-libopus --enable-libpulse --enable-librtmp --enable-libschroedinger --enable-libshine --enable-libsnappy --enable-libsoxr --enable-libspeex --enable-libssh --enable-libtheora --enable-libtwolame --enable-libvorbis --enable-libvpx --enable-libwavpack --enable-libwebp --enable-libx265 --enable-libxvid --enable-libzvbi --enable-openal --enable-opengl --enable-x11grab --enable-libdc1394 --enable-libiec61883 --enable-libzmq --enable-frei0r --enable-libx264 --enable-libopencv
  libavutil      54. 31.100 / 54. 31.100
  libavcodec     56. 60.100 / 56. 60.100
  libavformat    56. 40.101 / 56. 40.101
  libavdevice    56.  4.100 / 56.  4.100
  libavfilter     5. 40.101 /  5. 40.101
  libavresample   2.  1.  0 /  2.  1.  0
  libswscale      3.  1.101 /  3.  1.101
  libswresample   1.  2.101 /  1.  2.101
  libpostproc    53.  3.100 / 53.  3.100
[mp3 @ 0x20608c0] Unknown attached picture mimetype: ('image/png', None), skipping.
[mp3 @ 0x20608c0] Skipping 0 bytes of junk at 17522.
Input #0, mp3, from '228-autor-nieznany-piesn-o-rolandzie.mp3':
  Metadata:
    title           : Autor nieznany, "Pieśń o Rolandzie", 228 (tłum. Tadeusz Boy-Żeleński)
    artist          : Wiktor Korzeniewski
    album           : Wolne Lektury
    genre           : 0
    URL             : http://www.wolnelektury.pl/katalog/lektura/piesn-o-rolandzie
    encoder         : Lavf53.21.0
    date            : 2012
    CONDUCTOR       : Adam Bień
    PROJECT         : Słuchamy Polski
    TCD             : 50577233561
    performer       : Adam Bień
    album_artist    : Fundacja Nowoczesna Polska
    copyright       : 2012 Fundacja Nowoczesna Polska. Licensed to the public under http://creativecommons.org/licenses/by-sa/3.0/deed.pl verify at http://www.wolnelektury.pl/katalog/lektura/piesn-o-rolandzie
    TRANSLATOR      : Tadeusz Boy-Żeleński
    encoded_by      : Adam Bień
    publisher       : Fundacja Nowoczesna Polska
  Duration: 00:02:05.78, start: 0.000000, bitrate: 65 kb/s
    Stream #0:0: Audio: mp3, 44100 Hz, mono, s16p, 64 kb/s
Output #0, null, to 'pipe:':
  Metadata:
    title           : Autor nieznany, "Pieśń o Rolandzie", 228 (tłum. Tadeusz Boy-Żeleński)
    artist          : Wiktor Korzeniewski
    album           : Wolne Lektury
    genre           : 0
    URL             : http://www.wolnelektury.pl/katalog/lektura/piesn-o-rolandzie
    date            : 2012
    CONDUCTOR       : Adam Bień
    PROJECT         : Słuchamy Polski
    TCD             : 50577233561
    performer       : Adam Bień
    album_artist    : Fundacja Nowoczesna Polska
    copyright       : 2012 Fundacja Nowoczesna Polska. Licensed to the public under http://creativecommons.org/licenses/by-sa/3.0/deed.pl verify at http://www.wolnelektury.pl/katalog/lektura/piesn-o-rolandzie
    TRANSLATOR      : Tadeusz Boy-Żeleński
    encoded_by      : Adam Bień
    publisher       : Fundacja Nowoczesna Polska
    encoder         : Lavf56.40.101
    Stream #0:0: Audio: pcm_s16le, 44100 Hz, mono, s16, 705 kb/s
    Metadata:
      encoder         : Lavc56.60.100 pcm_s16le
Stream mapping:
  Stream #0:0 -> #0:0 (mp3 (native) -> pcm_s16le (native))
Press [q] to stop, [?] for help
[silencedetect @ 0x2073840] silence_start: 1.69429
[silencedetect @ 0x2073840] silence_end: 2.63837 | silence_duration: 0.944082
[silencedetect @ 0x2073840] silence_start: 12.7441
[silencedetect @ 0x2073840] silence_end: 13.4008 | silence_duration: 0.656735
[silencedetect @ 0x2073840] silence_start: 19.2224
[silencedetect @ 0x2073840] silence_end: 19.7486 | silence_duration: 0.526122
[silencedetect @ 0x2073840] silence_start: 22.7751
[silencedetect @ 0x2073840] silence_end: 23.3535 | silence_duration: 0.578367
[silencedetect @ 0x2073840] silence_start: 25.9359
[silencedetect @ 0x2073840] silence_end: 26.5665 | silence_duration: 0.630612
[silencedetect @ 0x2073840] silence_start: 29.358
[silencedetect @ 0x2073840] silence_end: 29.9363 | silence_duration: 0.578367
[silencedetect @ 0x2073840] silence_start: 34.8959
[silencedetect @ 0x2073840] silence_end: 35.422 | silence_duration: 0.526122
[silencedetect @ 0x2073840] silence_start: 38.2396
[silencedetect @ 0x2073840] silence_end: 38.818 | silence_duration: 0.578367
[silencedetect @ 0x2073840] silence_start: 44.4306
[silencedetect @ 0x2073840] silence_end: 44.9567 | silence_duration: 0.526122
[silencedetect @ 0x2073840] silence_start: 48.6363
[silencedetect @ 0x2073840] silence_end: 49.1363 | silence_duration: 0.5
[silencedetect @ 0x2073840] silence_start: 52.8943
[silencedetect @ 0x2073840] silence_end: 53.6033 | silence_duration: 0.70898
[silencedetect @ 0x2073840] silence_start: 63.1604
[silencedetect @ 0x2073840] silence_end: 63.9739 | silence_duration: 0.813469
[silencedetect @ 0x2073840] silence_start: 66.5563
[silencedetect @ 0x2073840] silence_end: 67.1347 | silence_duration: 0.578367
[silencedetect @ 0x2073840] silence_start: 87.9506
[silencedetect @ 0x2073840] silence_end: 88.6596 | silence_duration: 0.70898
[silencedetect @ 0x2073840] silence_start: 92.3131
[silencedetect @ 0x2073840] silence_end: 92.9176 | silence_duration: 0.60449
[silencedetect @ 0x2073840] silence_start: 93.4363
[silencedetect @ 0x2073840] silence_end: 93.9624 | silence_duration: 0.526122
[silencedetect @ 0x2073840] silence_start: 96.8061
[silencedetect @ 0x2073840] silence_end: 97.698 | silence_duration: 0.891837
[silencedetect @ 0x2073840] silence_start: 101.325
[silencedetect @ 0x2073840] silence_end: 101.851 | silence_duration: 0.526122
[silencedetect @ 0x2073840] silence_start: 106.889
[silencedetect @ 0x2073840] silence_end: 107.598 | silence_duration: 0.70898
[silencedetect @ 0x2073840] silence_start: 108.561
[silencedetect @ 0x2073840] silence_end: 109.296 | silence_duration: 0.735102
[silencedetect @ 0x2073840] silence_start: 123.869
size=N/A time=00:02:05.77 bitrate=N/A    
video:0kB audio:10834kB subtitle:0kB other streams:0kB global headers:0kB muxing overhead: unknown
